<?xml version="1.0" encoding="iso-8859-1"?>
<!-- Generator: Adobe Illustrator 19.0.0, SVG Export Plug-In . SVG Version: 6.00 Build 0)  -->
<svg version="1.1" id="Capa_1" xmlns="http://www.w3.org/2000/svg" xmlns:xlink="http://www.w3.org/1999/xlink" x="0px" y="0px"
	 viewBox="0 0 512 512" style="enable-background:new 0 0 512 512;" xml:space="preserve">
<g>
	<g>
		<path d="M491,492c-16.542,0-30-13.458-30-30c0-0.295-0.013-0.587-0.038-0.875V215c0-27.57-22.43-50-50-50h-110V97.181
			C320.649,90.521,334.904,71.915,335,50v-0.182C334.901,22.343,312.486,0,285,0H61C33.526,0,11.12,22.317,11,49.818V50
			c0.099,27.476,22.514,49.818,50,49.818h29.962V362c0,0.329,0.017,0.655,0.048,0.977C91.532,390.098,113.757,412,141,412h109.962
			v50c0,0.329,0.017,0.655,0.048,0.977C251.532,490.098,273.757,512,301,512h190c5.522,0,10-4.478,10-10
			C501,496.478,496.522,492,491,492z M60.962,39.818c-5.522,0-10,4.478-10,10c0,5.522,4.478,10,10,10
			c13.036,0,24.152,8.361,28.28,20H61c-16.506,0-29.964-13.427-30-29.888C31.036,33.427,44.494,20,61,20h224
			c16.504,0,29.961,13.424,30,29.882v0.022c-0.03,11.41-6.479,21.343-15.913,26.385c-5.917-21.015-25.243-36.471-48.125-36.471
			H60.962z M180.938,392c4.376-5.816,7.509-12.615,9.014-20h31.01c5.522,0,10-4.478,10-10c0-5.522-4.478-10-10-10h-30V215
			c0-16.542,13.458-30,30-30c16.542,0,30,13.458,30,30v177H180.938z M220.962,165c-22.279,0-41.194,14.649-47.637,34.819H141
			c-5.51,0-10,4.49-10,10c0,5.511,4.49,10,10,10h29.962v60H141c-5.51,0-10,4.48-10,10c0,5.511,4.49,10,10,10h29.962v19.999h-30.789
			c-5.522,0-10,4.478-10,10c0,5.522,4.478,10,10,10h30.789V362c0,16.536-13.448,29.989-29.981,30
			C124.448,391.989,111,378.536,111,362c0-0.295-0.013-0.587-0.038-0.875V89.818c0-11.246-3.733-21.638-10.023-30h150.023
			c16.542,0,30,13.458,30,30V165H220.962z M301,492c-16.542,0-30-13.458-30-30c0-0.295-0.013-0.587-0.038-0.875V215
			c0-11.246-3.733-21.638-10.023-30h150.023c16.542,0,30,13.458,30,30v247c0,0.329,0.017,0.655,0.048,0.977
			c0.209,10.87,3.906,20.904,10.014,29.023H301z"/>
	</g>
</g>
<g>
	<g>
		<path d="M410.962,445h-34.98c-5.522,0-10,4.478-10,10c0,5.522,4.478,10,10,10h34.98c5.522,0,10-4.478,10-10
			C420.962,449.478,416.484,445,410.962,445z"/>
	</g>
</g>
<g>
	<g>
		<path d="M410.96,405h-70c-5.51,0-10,4.49-10,10s4.49,10,10,10h70c5.519,0,10-4.49,10-10S416.48,405,410.96,405z"/>
	</g>
</g>
<g>
	<g>
		<path d="M300.96,405c-5.51,0-10,4.49-10,10s4.49,10,10,10c5.52,0,10-4.49,10-10S306.479,405,300.96,405z"/>
	</g>
</g>
<g>
	<g>
		<path d="M410.962,365h-34.98c-5.522,0-10,4.478-10,10c0,5.522,4.478,10,10,10h34.98c5.522,0,10-4.478,10-10
			C420.962,369.478,416.484,365,410.962,365z"/>
	</g>
</g>
<g>
	<g>
		<path d="M410.96,325h-70c-5.51,0-10,4.49-10,10s4.49,10,10,10h70c5.52,0,10-4.49,10-10S416.48,325,410.96,325z"/>
	</g>
</g>
<g>
	<g>
		<path d="M300.96,325c-5.51,0-10,4.49-10,10s4.49,10,10,10c5.52,0,10-4.49,10-10S306.479,325,300.96,325z"/>
	</g>
</g>
<g>
	<g>
		<path d="M410.96,285h-34.98c-5.51,0-10,4.49-10,10s4.49,10,10,10h34.98c5.52,0,10-4.49,10-10S416.479,285,410.96,285z"/>
	</g>
</g>
<g>
	<g>
		<path d="M410.96,245h-34.98c-5.51,0-10,4.49-10,10s4.49,10,10,10h34.98c5.52,0,10-4.49,10-10S416.479,245,410.96,245z"/>
	</g>
</g>
<g>
	<g>
		<path d="M300.96,205c-5.51,0-10,4.49-10,10s4.49,10,10,10c5.52,0,10-4.49,10-10S306.479,205,300.96,205z"/>
	</g>
</g>
<g>
	<g>
		<path d="M410.96,205h-70c-5.51,0-10,4.49-10,10s4.49,10,10,10h70c5.52,0,10-4.49,10-10S416.48,205,410.96,205z"/>
	</g>
</g>
<g>
	<g>
		<path d="M251,119.819h-34.98c-5.52,0-10,4.49-10,10c0,5.511,4.48,10,10,10H251c5.51,0,10-4.489,10-10
			C261,124.31,256.51,119.819,251,119.819z"/>
	</g>
</g>
<g>
	<g>
		<path d="M251,79.819h-70c-5.51,0-10,4.49-10,10c0,5.511,4.49,10,10,10h70c5.51,0,10-4.489,10-10
			C261,84.31,256.51,79.819,251,79.819z"/>
	</g>
</g>
<g>
	<g>
		<path d="M141,79.819c-5.51,0-10,4.49-10,10c0,5.511,4.49,10,10,10s10-4.489,10-10C151,84.31,146.51,79.819,141,79.819z"/>
	</g>
</g>
<g>
</g>
<g>
</g>
<g>
</g>
<g>
</g>
<g>
</g>
<g>
</g>
<g>
</g>
<g>
</g>
<g>
</g>
<g>
</g>
<g>
</g>
<g>
</g>
<g>
</g>
<g>
</g>
<g>
</g>
</svg>
