<?xml version="1.0" encoding="iso-8859-1"?>
<!-- Generator: Adobe Illustrator 19.0.0, SVG Export Plug-In . SVG Version: 6.00 Build 0)  -->
<svg version="1.1" id="Capa_1" xmlns="http://www.w3.org/2000/svg" xmlns:xlink="http://www.w3.org/1999/xlink" x="0px" y="0px"
	 viewBox="0 0 511.999 511.999" style="enable-background:new 0 0 511.999 511.999;" xml:space="preserve">
<path style="fill:#f64dd1;" d="M255.558,74.41c-100.513,0-181.995,81.482-181.995,181.995s81.482,181.995,181.995,181.995
	s181.995-81.482,181.995-181.995H255.558L255.558,74.41L255.558,74.41z"/>
<g>
	<path style="fill:#f64dd1;" d="M299.98,10v201.983h201.983C501.963,100.431,411.531,10,299.98,10z"/>
	<circle style="fill:#f64dd1;" cx="82.007" cy="81.934" r="31.999"/>
</g>
<circle style="fill:#f64dd1;" cx="447.206" cy="63.218" r="31.999"/>
<path d="M501.901,246.108L501.901,246.108c-5.523,0-10,4.477-10,9.999c-0.004,61.438-23.514,119.622-66.201,163.834
	c-43.773,45.338-102.58,70.915-165.591,72.021c-1.423,0.025-2.833,0.038-4.253,0.037c-61.434-0.002-119.451-23.416-163.764-66.201
	C8.635,345.22-3.529,213.887,63.473,119.611c5.593,2.762,11.882,4.321,18.53,4.321c23.158,0,41.999-18.84,41.999-41.999
	s-18.84-41.999-41.999-41.999s-41.999,18.84-41.999,41.999c0,9.254,3.015,17.812,8.105,24.761
	C12.515,156.102-4.228,216.886,0.963,277.875c5.248,61.645,32.678,119.288,77.238,162.311
	c48.073,46.414,110.999,71.813,177.646,71.813c1.536,0,3.074-0.014,4.613-0.041c68.352-1.2,132.144-28.945,179.628-78.126
	c46.306-47.961,71.809-111.077,71.813-177.724C511.9,250.586,507.424,246.108,501.901,246.108z M82.004,59.935
	c12.131,0,21.999,9.869,21.999,21.999s-9.869,21.999-21.999,21.999s-21.999-9.869-21.999-21.999S69.873,59.935,82.004,59.935z"/>
<path d="M63.564,256.404c0,43.95,15.231,86.907,42.888,120.96c27.257,33.56,65.383,57.169,107.356,66.479
	c5.393,1.197,10.732-2.205,11.928-7.598c1.196-5.392-2.206-10.731-7.597-11.928C140.16,407.022,83.563,336.404,83.563,256.404
	c0-91.48,71.794-166.51,161.995-171.708v171.708c0,5.522,4.477,10,10,10h171.707c-4.527,78.54-62.044,144.604-140.097,159.099
	c-5.43,1.009-9.015,6.228-8.006,11.658c0.894,4.813,5.096,8.176,9.821,8.176c0.605,0,1.22-0.056,1.837-0.17
	c90.817-16.865,156.732-96.251,156.732-188.762c0-5.522-4.477-10-10-10H265.558V74.409c0-5.522-4.477-10-10-10
	C149.692,64.41,63.564,150.539,63.564,256.404z"/>
<path d="M255.558,428.399c-5.523,0-10,4.478-10,10c0,5.522,4.477,10,10,10h0.422c5.523,0,10-4.478,10-10c0-5.522-4.477-10-10-10
	H255.558z"/>
<path d="M299.98,221.982h201.983c5.523,0,10-4.478,10-10c0-42.57-12.419-83.22-35.995-118.202
	c8.14-7.665,13.238-18.526,13.238-30.563c0-23.158-18.84-41.999-41.999-41.999c-23.158,0-41.999,18.84-41.999,41.999
	s18.84,41.999,41.999,41.999c3.916,0,7.703-0.55,11.302-1.557c20.034,29.222,31.403,62.9,33.203,98.323H309.979v-19.999h66.998
	c5.523,0,10-4.478,10-10c0-5.522-4.477-10-10-10h-66.998V20.254c19.11,0.978,37.811,4.762,55.719,11.285
	c5.192,1.893,10.928-0.784,12.819-5.973c1.89-5.189-0.784-10.929-5.973-12.819C349.322,4.289,324.908,0,299.98,0
	c-5.523,0-10,4.478-10,10v201.983C289.98,217.506,294.457,221.982,299.98,221.982z M425.206,63.219
	c0-12.131,9.869-21.999,21.999-21.999c12.131,0,21.999,9.869,21.999,21.999s-9.869,21.999-21.999,21.999
	C435.075,85.218,425.206,75.35,425.206,63.219z"/>
<path d="M421.046,179.054c1.86-1.859,2.93-4.439,2.93-7.069c0-2.63-1.07-5.21-2.93-7.07c-1.86-1.86-4.44-2.93-7.07-2.93
	c-2.63,0-5.21,1.069-7.07,2.93c-1.86,1.86-2.93,4.44-2.93,7.07c0,2.63,1.07,5.21,2.93,7.069c1.86,1.86,4.44,2.931,7.07,2.931
	C416.606,181.984,419.186,180.914,421.046,179.054z"/>
<g>
</g>
<g>
</g>
<g>
</g>
<g>
</g>
<g>
</g>
<g>
</g>
<g>
</g>
<g>
</g>
<g>
</g>
<g>
</g>
<g>
</g>
<g>
</g>
<g>
</g>
<g>
</g>
<g>
</g>
</svg>
