<svg id="Capa_1" enable-background="new 0 0 512 512" height="512" viewBox="0 0 512 512" width="512" xmlns="http://www.w3.org/2000/svg"><g><path d="m509.263 182.98c-1.88-1.99-4.53-3.14-7.27-3.14-2.07 0-4.07.64-5.77 1.84-.01 0-.02.01-.04.03 0 0-.01 0-.01.01-.22.16-4.66 3.33-12.46 6.37-5.218 2.043-10.671 3.582-16.176 4.584 13.602-30.828 19.583-64.329 14.729-86.726-.597-2.756-2.331-5.132-4.773-6.542-2.442-1.411-5.366-1.724-8.052-.863-9.206 2.951-19.16 8.569-29.087 16.111-1.215-44.032-14.977-89.066-34.317-111.229-1.898-2.176-4.645-3.425-7.534-3.425-2.888 0-5.636 1.249-7.534 3.425-20.263 23.221-34.414 71.549-34.414 117.525 0 7.98.455 15.504 1.358 22.685-.595-.281-1.189-.573-1.786-.83-7.19-3.12-14.81-4.805-22.669-4.805h-.08c-13.961 0-26.499 4.717-37.77 9.473-1.791.756-11.481 5.222-14.016 6.291-9.616 4.053-18.183 7.236-25.241 7.236-.12 0-.23 0-.35 0-7.614 0-16.93-3.477-27.456-8-1.944-.835-11.049-4.97-13.216-5.876-10.992-4.596-23.181-9.124-36.696-9.124h-.09c-7.85 0-15.48 1.625-22.669 4.745-7.77 3.35-15.34 8.778-22.47 15.828-24.03 23.619-48.43 35.427-74.599 35.427h-.02c-13.52 0-24.649-3.5-31.599-6.34-3.91-1.59-12.621-6.808-13.274-7.105-1.228-.558-2.548-.56-3.906-.56-2.74 0-5.39 1.073-7.27 3.063-1.66 1.77-2.63 4.021-2.73 6.431-.09 2.41.69 4.761 2.21 6.65.06.07 38.384 46.966 43.894 53.446 3.73 4.38 8.895 9.498 11.895 13.549v91.866c0 2.632 1.038 5.157 2.887 7.029l37.112 37.556v102.415c0 5.522 4.477 10 10 10s10-4.478 10-10v-186.527c7 3.904 13.269 7.139 19.745 9.657 12.279 4.78 24.841 7.21 37.191 7.22 10.81 0 21.446-1.53 31.546-4.54 9.81-2.92 18.998-7.18 27.257-12.66 5.92-3.94 13.209-5.86 22.249-5.87 8.92.01 16.404 1.98 22.244 5.87 8.26 5.48 17.432 9.74 27.251 12.66 10.1 3.01 20.701 4.54 31.5 4.54 9.69 0 19.5-1.5 29.18-4.46 8.54-2.61 17.19-6.42 25.72-11.34 4.769-2.75 6.42-8.88 3.67-13.65-1.78-3.09-5.11-5.01-8.68-5.01-1.74 0-3.46.285-4.98 1.155-15.34 8.83-30.029 12.955-44.909 12.955h-.02c-17.29 0-34.219-4.885-47.658-13.825-9.21-6.11-20.41-9.175-33.279-9.175h-.09c-12.86 0-24.049 3.065-33.249 9.175-13.44 8.94-30.369 13.825-47.659 13.825h-.07c-18.6 0-37.149-6.625-56.688-20.605-15.6-11.14-29.059-24.903-39.879-36.033-.85-.88-10.44-11.196-16.91-18.786-5.6-6.58-12.44-14.768-20.359-24.378 5.82 1 17.919 1.551 18.039 1.551 21.4 0 54.099-7.124 88.288-41.044 5.44-5.37 10.79-9.147 16.35-11.548 4.82-2.07 9.53-3.039 14.83-3.049 8.964-.072 18.856 3.215 28.586 7.237 2.471 1.021 9.763 4.204 10.923 4.704 11.809 5.13 24.019 10.43 37.859 10.55 11.835-.102 22.479-3.993 32.693-8.326 1.73-.734 12.447-5.396 14.324-6.189 10.199-4.311 20.644-7.984 30.111-7.984.08 0 .16 0 .25.01 5.29.01 10 .98 14.819 3.05 5.56 2.4 10.91 6.18 16.35 11.55 34.379 34.11 67.218 41.13 88.647 41.05 5.92-.02 11.86-.54 17.68-1.54-10.1 12.26-18.379 22.15-24.629 29.38-3.61 4.17-3.15 10.5 1.02 14.11 1.82 1.57 4.14 2.43 6.54 2.43 2.91 0 5.67-1.26 7.57-3.46 17-19.68 48.409-58.56 48.409-58.56 1.52-1.89 2.3-4.26 2.21-6.67-.103-2.41-1.063-4.7-2.733-6.47zm-431.258 100.767c6 5.857 13 11.928 19.999 17.77v69.615l-19.999-20.239zm366.958-90.149c-6.834-.659-13.554-2.14-20.186-4.452 7.824-14.407 12.534-29.739 14.535-47.187 8.223-7.911 16.684-14.518 24.633-19.084.044 20.11-7.16 47.242-18.982 70.723zm-46.46-166.249c12.921 22.38 21.949 59.641 21.949 93.602 0 23.719-4.184 42.399-13.82 59.682-8.195-4.847-16.288-11.014-24.331-18.503-3.95-12.246-5.748-25.629-5.748-41.179.001-33.962 9.03-71.222 21.95-93.602z"/><path d="m173.497 203.596c-29.566 0-52.347 27.507-53.303 28.679-3.002 3.68-3.002 8.963 0 12.643.956 1.171 23.737 28.679 53.303 28.679 29.567 0 52.347-27.508 53.302-28.679 3.002-3.68 3.002-8.963 0-12.643-.954-1.171-23.735-28.679-53.302-28.679zm0 50c-12.847 0-24.718-8.713-31.612-15 6.899-6.291 18.769-15 31.612-15 12.836 0 24.7 8.699 31.596 14.985-6.92 6.288-18.828 15.015-31.596 15.015z"/><path d="m338.505 203.596c-29.566 0-52.347 27.507-53.303 28.679-3.002 3.68-3.002 8.963 0 12.643.956 1.171 23.737 28.679 53.303 28.679s52.347-27.507 53.303-28.679c3.002-3.68 3.002-8.963 0-12.643-.956-1.171-23.737-28.679-53.303-28.679zm0 50c-12.847 0-24.718-8.713-31.612-15 6.899-6.291 18.769-15 31.612-15 12.847 0 24.718 8.713 31.612 15-6.899 6.291-18.769 15-31.612 15z"/><circle cx="422.554" cy="280.57" r="10"/></g></svg>