<svg height="512pt" viewBox="0 0 512.00032 512" width="512pt" xmlns="http://www.w3.org/2000/svg">
	    <style>
        path {
            fill: #d6ffe3
        }
        circle {
            fill: #d6ffe3
        }
    </style>
    <path d="m507 493.324219c-76.210938-43.996094-163.003906-67.253907-251-67.253907-1.449219 0-2.894531.023438-4.34375.035157-10.976562-61.929688-14.773438-148.808594-15.734375-222.839844 0-.023437.003906-.042969.003906-.0625 0-.039063-.007812-.074219-.007812-.109375-.050781-4.097656-.097657-8.15625-.132813-12.167969 3.933594 1.660157 8.25 2.582031 12.78125 2.582031 15.789063 0 29.011719-11.175781 32.1875-26.03125l37.371094 27.527344c1.753906 1.289063 3.835938 1.949219 5.929688 1.949219 1.625 0 3.257812-.398437 4.742187-1.199219 3.402344-1.832031 5.445313-5.464844 5.242187-9.324218-1.613281-30.867188-8.480468-54.078126-20.875-70.347657l8.664063-16.058593 10.734375 15.667968c2.378906 3.472656 6.675781 5.082032 10.746094 4.03125l69.1875-17.835937c3.15625-.816407 5.71875-3.117188 6.867187-6.167969 1.144531-3.050781.730469-6.46875-1.105469-9.160156-20.066406-29.355469-44.222656-46.402344-71.789062-50.671875-6.949219-1.070313-13.925781-1.324219-20.902344-.875-20.832031-33.710938-43.515625-36.289063-55.550781-34.640625-23.273437 3.183594-43.730469 25.730468-58.382813 63.289062-11.082031-31.484375-31.328124-53.757812-55.675781-59.046875-23.167969-5.03125-45.222656 6.027344-61.285156 30.441407-5.679687-.382813-11.359375-.316407-17.023437.292968-5.492188.59375-9.460938 5.527344-8.867188 11.015625.59375 5.492188 5.523438 9.449219 11.015625 8.867188 30.144531-3.253907 63.375 13.136719 93.234375 33.308593-18-.351562-36.070312 2.78125-51.125 13.34375l-13.914062-25.78125c-1.65625-3.066406-4.792969-5.050781-8.273438-5.234374-3.488281-.171876-6.804688 1.457031-8.777344 4.332031l-16.039062 23.410156-47.894532-12.351563c.4375-.523437.878907-1.039062 1.320313-1.546874 3.617187-4.175782 3.164063-10.492188-1.007813-14.109376-4.175781-3.613281-10.492187-3.160156-14.109374 1.011719-3.925782 4.53125-7.78125 9.558594-11.464844 14.945313-1.839844 2.691406-2.253906 6.109375-1.105469 9.160156 1.144531 3.050781 3.707031 5.355469 6.867187 6.167969l69.1875 17.835937c4.074219 1.054688 8.367188-.558594 10.746094-4.03125l10.734375-15.667968 8.78125 16.273437c-12.472656 16.277344-19.378906 39.535156-20.996093 70.503906-.203126 3.859375 1.839843 7.492188 5.246093 9.324219 1.484375.800781 3.117188 1.195312 4.738281 1.195312 2.09375 0 4.179688-.65625 5.933594-1.949218l37.554688-27.660156c3.261718 14.738281 16.425781 25.796874 32.132812 25.796874 4.523438 0 8.839844-.917968 12.769532-2.578124-.691407 71.617187-4.175782 175.40625-17.339844 243.121093-56.8125 10.25-111.707032 30.242188-161.996094 59.277344-3.917969 2.261719-5.828125 6.875-4.65625 11.246094 1.167969 4.371093 5.132812 7.414062 9.65625 7.414062h492c4.523438 0 8.488281-3.042969 9.65625-7.414062 1.175781-4.371094-.734375-8.984375-4.65625-11.25zm-308.101562-360.359375c0-7.121094 5.792968-12.914063 12.917968-12.914063 7.121094 0 12.914063 5.792969 12.914063 12.914063 0 7.125-5.792969 12.917968-12.914063 12.917968-7.125 0-12.917968-5.792968-12.917968-12.917968zm12.917968 32.917968c1.296875 0 2.574219-.082031 3.835938-.230468.011718 8.882812.0625 18.089844.152344 27.550781h-11.480469c.09375-9.65625.144531-19.070313.15625-28.15625 2.359375.542969 4.8125.835937 7.335937.835937zm5.179688 87.320313h-13.859375c.417969-13.53125.71875-26.925781.929687-40h12c.210938 13.054687.511719 26.453125.929688 40zm-14.554688 20h15.253906c.523438 13.34375 1.164063 26.738281 1.945313 40.003906h-19.140625c.777344-13.257812 1.417969-26.652343 1.941406-40.003906zm-3.242187 60.003906h21.738281c1.21875 17.179688 2.699219 33.984375 4.488281 50h-30.71875c1.792969-16.007812 3.273438-32.808593 4.492188-50zm49.367187-159.699219c-7.125 0-12.917968-5.792968-12.917968-12.917968 0-7.121094 5.792968-12.914063 12.917968-12.914063 7.121094 0 12.914063 5.792969 12.914063 12.914063 0 7.125-5.792969 12.917968-12.914063 12.917968zm-13.527344-64.539062c19.191407-2.0625 38.992188-.847656 53.203126 10.113281 11.734374 9.050781 19.574218 24.585938 23.410156 46.316407zm108.371094-53.316406c18.480469 2.859375 34.804688 12.910156 49.601563 30.605468l-47.910157 12.351563-16.039062-23.410156c-1.972656-2.875-5.285156-4.507813-8.78125-4.332031-3.480469.183593-6.613281 2.167968-8.269531 5.234374l-13.769531 25.519532c-14.933594-10.535156-32.84375-13.734375-50.71875-13.453125 30.753906-20.707031 65.023437-37.285157 95.886718-32.515625zm-70.679687-35.464844c10.425781-1.429688 21.222656 5.03125 31.132812 18.382812-26.15625 6.730469-51.957031 21.738282-76.046875 38.871094 13.710938-39.023437 31.40625-55.40625 44.914063-57.253906zm-121.019531 3.96875c16.441406 3.570312 35.316406 22.335938 44.121093 55.898438-24.910156-18.039063-51.78125-34.121094-79.054687-41.289063 10.320312-12.179687 22.414062-17.328125 34.933594-14.609375zm-19.949219 95.292969c10.632812-8.199219 24.382812-10.945313 38.675781-10.945313 4.8125 0 9.6875.3125 14.523438.832032l-76.609376 56.429687c3.835938-21.734375 11.675782-37.265625 23.410157-46.316406zm39.804687 54.058593c-7.125 0-12.917968-5.792968-12.917968-12.917968 0-7.121094 5.792968-12.914063 12.917968-12.914063 7.121094 0 12.914063 5.792969 12.914063 12.914063 0 7.125-5.792969 12.917968-12.914063 12.917968zm20.683594 229.699219h35.632812c1.097657 8.117188 2.285157 15.957031 3.574219 23.46875-14.570312.714844-29.078125 2.082031-43.492187 4.054688 1.566406-8.726563 2.992187-17.933594 4.285156-27.523438zm-141.546875 88.777344c64.042969-30.128906 134.265625-45.914063 205.296875-45.914063s141.253906 15.785157 205.300781 45.914063zm0 0"/><path d="m407.003906 306.484375c-30.054687 0-54.5 24.449219-54.5 54.5 0 4.058594.457032 8.003906 1.300782 11.8125h-12.085938c-5.519531 0-10 4.476563-10 10s4.480469 10 10 10h21.074219c9.90625 13.726563 26.027343 22.6875 44.210937 22.6875 30.050782 0 54.5-24.449219 54.5-54.5 0-.3125-.019531-.625-.027344-.9375h11.027344c5.523438 0 10-4.476563 10-10s-4.476562-10-10-10h-15.191406c-8.222656-19.6875-27.675781-33.5625-50.308594-33.5625zm15.25 53.5625h19.222656c.011719.3125.027344.625.027344.9375 0 19.023437-15.480468 34.5-34.5 34.5-6.535156 0-12.652344-1.824219-17.863281-4.992187 2.207031-1.835938 3.613281-4.601563 3.613281-7.695313 0-5.523437-4.476562-10-10-10h-8.167968c-1.347657-3.6875-2.082032-7.664063-2.082032-11.8125 0-19.023437 15.476563-34.5 34.5-34.5 11.152344 0 21.082032 5.324219 27.394532 13.5625h-12.144532c-5.523437 0-10 4.476563-10 10s4.476563 10 10 10zm0 0"/><path d="m312.753906 372.800781c-5.523437 0-10 4.476563-10 10 0 5.519531 4.476563 10 10 10h.234375c5.523438 0 10-4.480469 10-10 0-5.523437-4.476562-10-10-10zm0 0"/><path d="m53.003906 57.988281c0 5.523438-4.476562 10-10 10-5.523437 0-10-4.476562-10-10 0-5.523437 4.476563-10 10-10 5.523438 0 10 4.476563 10 10zm0 0"/></svg>