<?xml version="1.0" standalone="no"?>
<!DOCTYPE svg PUBLIC "-//W3C//DTD SVG 20010904//EN"
 "http://www.w3.org/TR/2001/REC-SVG-20010904/DTD/svg10.dtd">
<svg version="1.0" xmlns="http://www.w3.org/2000/svg"
 width="700.000000pt" height="700.000000pt" viewBox="0 0 700.000000 700.000000"
 preserveAspectRatio="xMidYMid meet">
<metadata>
Created by potrace 1.11, written by Peter Selinger 2001-2013
</metadata>
<g transform="translate(0.000000,700.000000) scale(0.100000,-0.100000)"
fill="#000000" stroke="none">
<path d="M1598 6971 l-33 -29 -5 -342 -5 -342 -180 -67 c-450 -170 -711 -301
-909 -455 -125 -98 -198 -197 -257 -350 -61 -158 -99 -407 -79 -518 32 -177
165 -309 339 -337 55 -9 128 -2 585 54 286 36 524 65 528 65 3 0 32 -78 63
-172 32 -95 67 -183 78 -195 58 -65 177 -18 177 70 0 14 -13 63 -29 109 -16
46 -48 144 -71 218 -44 140 -64 175 -109 185 -23 5 -355 -33 -967 -111 -236
-30 -260 -27 -328 39 -61 58 -71 101 -56 231 27 236 95 401 205 505 165 154
529 336 1010 505 123 44 166 64 188 87 l27 29 0 311 0 310 23 -6 c54 -16 167
-78 220 -120 96 -76 180 -205 225 -345 28 -89 39 -150 57 -330 67 -651 283
-1218 585 -1533 144 -150 198 -175 617 -282 567 -145 815 -231 1129 -388 184
-92 322 -178 469 -292 44 -34 90 -67 102 -73 67 -36 143 13 143 92 0 24 -8 49
-18 62 -42 51 -202 166 -374 272 -337 206 -705 349 -1278 497 -488 126 -518
137 -619 230 -175 163 -338 484 -445 879 -34 122 -82 370 -95 481 -5 50 -15
135 -21 190 -29 264 -117 469 -268 627 -123 129 -244 199 -421 244 -127 32
-162 31 -203 -5z"/>
<path d="M1276 5735 c-164 -58 -204 -334 -66 -459 33 -30 91 -56 125 -56 34 0
92 26 125 56 142 128 95 416 -77 463 -48 14 -59 13 -107 -4z"/>
<path d="M1868 4040 c-27 -28 -30 -36 -26 -78 3 -27 34 -113 73 -202 118 -272
109 -239 109 -390 0 -121 -3 -144 -28 -220 -33 -100 -65 -166 -152 -312 -239
-403 -292 -695 -173 -945 46 -98 164 -215 239 -237 29 -9 68 -16 85 -16 86 0
187 58 235 134 11 19 32 89 46 157 41 200 96 330 191 451 41 52 141 145 147
137 2 -2 40 -48 85 -102 l81 -98 3 -187 c3 -170 6 -195 30 -275 54 -176 150
-330 286 -459 97 -93 256 -201 367 -249 l74 -33 0 -248 0 -248 -404 0 c-435 0
-485 -4 -608 -54 -131 -53 -278 -168 -317 -249 -27 -57 -28 -144 -2 -196 26
-50 81 -97 128 -110 55 -16 1724 -15 1795 0 170 36 305 175 338 348 5 30 10
183 10 340 l0 287 95 27 c292 82 534 269 696 539 27 45 49 77 49 73 0 -5 11
-83 26 -174 30 -200 83 -441 124 -574 27 -84 36 -101 63 -118 68 -43 157 0
157 77 0 19 -13 80 -30 135 -73 246 -132 612 -165 1016 -16 203 -23 224 -80
252 -36 17 -98 0 -121 -34 -8 -13 -24 -68 -35 -121 -49 -240 -166 -468 -319
-622 -146 -148 -348 -250 -549 -277 -37 -5 -62 -15 -85 -35 l-31 -28 -5 -374
c-5 -361 -6 -374 -27 -415 -27 -50 -86 -100 -133 -113 -21 -6 -362 -10 -878
-10 -828 0 -843 0 -830 19 23 33 111 101 163 126 114 56 133 57 635 62 256 2
475 6 488 9 12 2 31 19 42 37 19 30 20 52 20 390 0 404 1 401 -72 431 -316
133 -505 286 -613 495 -64 124 -93 297 -76 449 30 275 120 474 290 642 137
135 273 208 468 249 122 26 163 75 129 154 -30 74 -92 80 -266 30 -235 -68
-448 -214 -590 -404 -58 -78 -138 -224 -160 -294 l-13 -39 -38 44 c-22 25 -39
48 -39 53 0 4 32 44 70 89 82 95 125 179 145 284 29 151 15 209 -59 234 -27 9
-42 8 -69 -4 -46 -19 -58 -43 -73 -148 -21 -141 -38 -165 -288 -413 -238 -237
-279 -291 -346 -457 -33 -84 -75 -235 -86 -312 -19 -134 -123 -107 -201 52
-37 74 -38 79 -38 181 1 79 6 126 23 186 27 96 110 272 185 393 78 126 113
199 153 317 65 196 69 399 11 561 -54 149 -169 400 -193 422 -38 34 -97 30
-136 -8z"/>
<path d="M5500 3303 c-51 -19 -83 -90 -60 -133 7 -13 40 -58 74 -101 158 -200
249 -417 291 -695 8 -56 24 -229 35 -385 29 -407 49 -554 105 -779 80 -319
236 -641 429 -881 l49 -61 -34 7 c-68 15 -236 78 -310 116 -41 22 -102 62
-135 89 -125 104 -125 105 -166 105 -32 0 -46 -7 -69 -33 -41 -45 -40 -95 3
-146 38 -47 161 -139 250 -189 188 -105 480 -185 740 -203 111 -8 139 3 163
59 19 46 8 83 -34 117 -20 16 -71 57 -114 91 -152 120 -298 315 -411 549 -152
316 -217 600 -251 1095 -37 544 -79 754 -201 998 -77 152 -214 344 -267 374
-23 13 -61 15 -87 6z"/>
</g>
</svg>
