<?xml version="1.0" encoding="iso-8859-1"?>
<!-- Generator: Adobe Illustrator 19.0.0, SVG Export Plug-In . SVG Version: 6.00 Build 0)  -->
<svg version="1.1" id="Layer_1" xmlns="http://www.w3.org/2000/svg" xmlns:xlink="http://www.w3.org/1999/xlink" x="0px" y="0px"
	 viewBox="0 0 512.001 512.001" style="enable-background:new 0 0 512.001 512.001;" xml:space="preserve">
	    <style>
        path {
            fill: #FEE440;
        }
        circle {
            fill: #FEE440
        }
    </style>
<g>
	<g>
		<g>
			<path d="M182.045,343.467c0-19.213-15.631-34.845-34.845-34.845c-19.213,0-34.844,15.631-34.844,34.845
				c0,19.213,15.631,34.844,34.844,34.844C166.414,378.309,182.045,362.68,182.045,343.467z M133.69,343.467
				c0-7.45,6.061-13.511,13.51-13.511s13.511,6.061,13.511,13.511c0,7.45-6.062,13.51-13.511,13.51
				C139.75,356.976,133.69,350.915,133.69,343.467z"/>
			<path d="M364.801,378.309c19.213,0,34.844-15.631,34.844-34.844c0-19.213-15.631-34.845-34.844-34.845
				c-19.213,0-34.844,15.631-34.844,34.845C329.957,362.68,345.588,378.309,364.801,378.309z M364.801,329.955
				c7.45,0,13.51,6.061,13.51,13.511c0,7.45-6.061,13.51-13.51,13.51c-7.45,0-13.51-6.061-13.51-13.51
				C351.29,336.016,357.35,329.955,364.801,329.955z"/>
			<path d="M467.391,495.195l-52.463-74.554c19.568-9.621,33.072-29.758,33.072-52.995V101.689v-0.002v-0.002
				c-0.003-32.542-26.479-59.018-59.023-59.018h-58.308V31.999C330.669,14.355,316.315,0,298.67,0h-85.339
				c-17.645,0-32,14.355-32,31.999v10.668h-58.31c-32.544,0-59.019,26.475-59.022,59.018v0.001c0,0.001,0,0.001,0,0.001v0.002
				v265.957c0,23.238,13.504,43.375,33.073,52.996l-52.462,74.553c-3.391,4.818-2.234,11.472,2.585,14.862
				c1.867,1.314,4.008,1.945,6.129,1.945c3.354,0,6.656-1.578,8.733-4.529l26.838-38.139h334.211l26.837,38.139
				c2.077,2.951,5.379,4.529,8.734,4.529c2.121,0,4.262-0.631,6.129-1.945C469.623,506.667,470.781,500.012,467.391,495.195z
				 M426.667,223.999H266.665v-32.911l78.735-78.735h38.218l-31.66,31.661c-4.166,4.165-4.165,10.919,0,15.085
				c2.083,2.083,4.813,3.124,7.541,3.124c2.731,0,5.46-1.042,7.543-3.124l46.742-46.746h12.882V223.999z M266.665,160.917v-48.564
				h48.564L266.665,160.917z M202.665,31.999c0-5.882,4.785-10.666,10.667-10.666h85.339c5.882,0,10.666,4.784,10.666,10.666v10.668
				H202.665V31.999z M123.021,64h68.977h128.004h68.975c17.077,0,31.529,11.419,36.142,27.02h-84.132c-0.004,0-0.007,0-0.012,0
				H86.879C91.494,75.42,105.944,64,123.021,64z M85.333,112.353h159.999v32.914l-78.733,78.732h-38.212l31.656-31.657
				c4.165-4.165,4.165-10.919,0-15.086c-4.165-4.165-10.919-4.165-15.086,0l-46.741,46.741H85.333V112.353z M245.332,175.438v48.561
				h-48.561L245.332,175.438z M85.333,367.646V245.332h17.257c0.015,0,0.029,0.002,0.044,0.002c0.015,0,0.029-0.002,0.044-0.002
				h68.295c0.015,0,0.029,0.002,0.044,0.002s0.029-0.002,0.044-0.002h255.607v122.314c0,20.781-16.908,37.688-37.69,37.688H123.021
				C102.239,405.333,85.333,388.427,85.333,367.646z M103.907,447.998l15.117-21.482c1.322,0.089,2.652,0.15,3.997,0.15h265.956
				c1.346,0,2.677-0.062,4-0.151l15.117,21.483H103.907z"/>
			<path d="M219.734,293.688h72.532c5.89,0,10.667-4.775,10.667-10.667s-4.776-10.667-10.667-10.667h-72.532
				c-5.891,0-10.667,4.775-10.667,10.667S213.842,293.688,219.734,293.688z"/>
			<path d="M330.115,165.855l-0.554,0.554c-4.163,4.167-4.16,10.922,0.007,15.085c2.082,2.081,4.811,3.121,7.538,3.121
				c2.731,0,5.464-1.043,7.546-3.127l0.554-0.554c4.164-4.167,4.16-10.922-0.006-15.085
				C341.032,161.684,334.278,161.688,330.115,165.855z"/>
			<path d="M174.339,173.628c2.731,0,5.46-1.041,7.543-3.124l0.554-0.554c4.166-4.166,4.166-10.921,0.001-15.086
				s-10.919-4.165-15.086,0l-0.554,0.554c-4.165,4.165-4.165,10.919,0,15.086C168.879,172.587,171.61,173.628,174.339,173.628z"/>
		</g>
	</g>
</g>
<g>
</g>
<g>
</g>
<g>
</g>
<g>
</g>
<g>
</g>
<g>
</g>
<g>
</g>
<g>
</g>
<g>
</g>
<g>
</g>
<g>
</g>
<g>
</g>
<g>
</g>
<g>
</g>
<g>
</g>
</svg>
