<?xml version="1.0" encoding="iso-8859-1"?>
<!-- Generator: Adobe Illustrator 19.0.0, SVG Export Plug-In . SVG Version: 6.00 Build 0)  -->
<svg version="1.1" id="Layer_1" xmlns="http://www.w3.org/2000/svg" xmlns:xlink="http://www.w3.org/1999/xlink" x="0px" y="0px"
	 viewBox="0 0 512 512" style="enable-background:new 0 0 512 512;" xml:space="preserve">
<g>
	<g>
		<g>
			<path d="M142.775,210.893c4.142,0,7.5-3.358,7.5-7.5v-22.678c0-4.142-3.358-7.5-7.5-7.5c-4.142,0-7.5,3.358-7.5,7.5v22.678
				C135.275,207.534,138.633,210.893,142.775,210.893z"/>
			<path d="M469.268,275.755C493.975,270.586,512,247.843,512,220.689s-18.025-49.896-42.733-55.065
				c-9.676-37.743-29.302-72.355-57.575-100.628C370.105,23.409,314.814,0.507,256,0.507c-58.813,0-114.106,22.903-155.693,64.49
				c-28.274,28.273-47.9,62.885-57.575,100.628C18.025,170.794,0,193.536,0,220.689s18.025,49.895,42.732,55.064
				c9.676,37.743,29.302,72.355,57.575,100.629c5.781,5.781,11.835,11.186,18.118,16.234c-12.696,4.416-23.655,10.995-32.817,19.691
				H72.862c-8.929,0-17.142,4.778-21.436,12.471c-0.001,0.002-0.053,0.095-0.055,0.098c-6.89,12.375-11.847,26.379-14.733,41.626
				c-0.84,4.435,0.331,8.973,3.213,12.452c2.889,3.488,7.144,5.488,11.673,5.488h2.49c-0.238,2.693-0.398,5.253-0.486,7.612
				c-0.192,5.129,1.664,9.991,5.227,13.69c3.571,3.707,8.373,5.749,13.523,5.749h367.443c5.149,0,9.952-2.042,13.523-5.749
				c3.563-3.699,5.419-8.561,5.227-13.689c-0.088-2.359-0.249-4.919-0.486-7.612h2.489c4.529,0,8.783-2,11.673-5.487
				c2.882-3.478,4.053-8.017,3.214-12.452c-2.887-15.247-7.844-29.253-14.71-41.584l-0.052-0.093l-0.026-0.047
				c-4.293-7.692-12.507-12.471-21.436-12.471h-12.745c-9.162-8.696-20.122-15.276-32.818-19.691
				c6.283-5.047,12.337-10.453,18.118-16.234C439.966,348.109,459.592,313.497,469.268,275.755z M472.882,182.396
				c14.283,6.04,24.118,20.93,24.118,38.293c0,17.363-9.836,32.253-24.118,38.293c2.183-12.521,3.301-25.32,3.301-38.293
				C476.183,207.718,475.065,194.917,472.882,182.396z M39.118,258.982C24.835,252.942,15,238.052,15,220.689
				c0-17.363,9.835-32.253,24.118-38.293c-2.183,12.52-3.301,25.32-3.301,38.293C35.817,233.662,36.935,246.463,39.118,258.982z
				 M211.497,20.382c14.335-3.183,29.224-4.875,44.503-4.875s30.168,1.693,44.503,4.875v56.314
				c-14.434-2.539-29.349-3.852-44.503-3.852c-15.155,0-30.069,1.313-44.503,3.852V20.382z M380.035,124.604
				c35.451,25.168,54.976,59.292,54.976,96.086s-19.524,70.917-54.976,96.085c-33.39,23.705-77.439,36.76-124.035,36.76
				s-90.646-13.055-124.036-36.76c-35.452-25.17-54.976-59.293-54.976-96.086c0-36.793,19.524-70.917,54.976-96.086
				c33.39-23.705,77.439-36.76,124.036-36.76C302.596,87.843,346.646,100.898,380.035,124.604z M56.119,469.441h-4.594
				c-0.04,0-0.075,0-0.148-0.149c2.586-13.664,6.994-26.152,13.079-37.081l0.068-0.122c1.646-2.949,4.841-4.781,8.338-4.781h0.106
				c-1.807,2.684-3.507,5.489-5.089,8.428C61.798,447.032,58.204,458.756,56.119,469.441z M72.279,496.492
				c-1.398,0-2.304-0.724-2.72-1.155c-0.411-0.427-1.092-1.348-1.041-2.723c0.485-12.953,3.059-32.101,12.569-49.769
				c8.6-15.976,21.262-27.468,37.765-34.323c-18.015,25.844-28.378,56.279-29.792,87.97H72.279z M174.136,496.492h-28.621
				c3.398-14.375,16.329-25.108,31.728-25.108c6.279,0,12.145,1.788,17.126,4.876L174.136,496.492z M195.349,496.492l9.626-9.626
				c1.818,2.933,3.179,6.175,3.995,9.626H195.349z M224.255,496.493L224.255,496.493c-1.205-7.579-4.207-14.564-8.551-20.512
				c2.091-2.929,1.83-7.021-0.8-9.65c-2.628-2.629-6.72-2.891-9.649-0.8c-7.866-5.745-17.547-9.147-28.012-9.147
				c-23.699,0-43.404,17.408-47.012,40.108h-26.157c1.608-32.784,13.731-64.063,34.649-89.362
				c34.785,21.975,75.126,33.743,117.277,33.743s82.492-11.768,117.277-33.743c20.918,25.299,33.041,56.578,34.649,89.363H224.255z
				 M439.138,427.307L439.138,427.307c3.497,0.001,6.691,1.833,8.338,4.782l0.047,0.084c6.106,10.966,10.514,23.455,13.074,37.211
				c-0.048,0.057-0.082,0.057-0.122,0.057h-4.593c-2.085-10.685-5.679-22.408-11.76-33.706c-1.582-2.939-3.283-5.745-5.089-8.428
				H439.138z M430.913,442.846c9.511,17.668,12.084,36.816,12.568,49.77c0.052,1.375-0.629,2.295-1.04,2.722
				c-0.416,0.431-1.321,1.155-2.72,1.155H422.94c-1.415-31.691-11.778-62.126-29.792-87.97
				C409.65,415.378,422.313,426.87,430.913,442.846z M256,425.872c-113.138,0-205.183-92.044-205.183-205.183
				c0-92.452,61.469-170.807,145.68-196.374v55.502c-27.11,6.544-52.105,17.567-73.216,32.555
				c-39.525,28.061-61.292,66.529-61.292,108.317c0,41.788,21.767,80.255,61.292,108.317c35.905,25.49,83.038,39.529,132.719,39.529
				s96.815-14.038,132.719-39.529c39.524-28.06,61.292-66.528,61.292-108.317s-21.768-80.257-61.292-108.317
				c-21.111-14.988-46.106-26.011-73.216-32.555V24.317c84.211,25.566,145.68,103.921,145.68,196.374
				C461.183,333.828,369.138,425.872,256,425.872z"/>
			<path d="M369.225,210.893c4.143,0,7.5-3.358,7.5-7.5v-22.678c0-4.142-3.357-7.5-7.5-7.5s-7.5,3.358-7.5,7.5v22.678
				C361.725,207.534,365.082,210.893,369.225,210.893z"/>
			<path d="M158.018,227.242h-30.484c-4.142,0-7.5,3.358-7.5,7.5c0,4.142,3.358,7.5,7.5,7.5h30.484c4.142,0,7.5-3.358,7.5-7.5
				C165.518,230.599,162.16,227.242,158.018,227.242z"/>
			<path d="M243.017,220.671c-2.469-3.327-7.166-4.023-10.492-1.555c-3.327,2.468-4.022,7.166-1.555,10.492
				c5.869,7.91,15.226,12.632,25.03,12.632c9.805,0,19.162-4.722,25.03-12.632c2.468-3.327,1.772-8.024-1.555-10.492
				c-3.327-2.468-8.023-1.772-10.492,1.555c-3.098,4.175-7.83,6.57-12.983,6.57C250.846,227.242,246.114,224.848,243.017,220.671z"
				/>
			<path d="M353.976,242.242h30.484c4.143,0,7.5-3.358,7.5-7.5c0-4.142-3.357-7.5-7.5-7.5h-30.484c-4.143,0-7.5,3.358-7.5,7.5
				C346.476,238.883,349.833,242.242,353.976,242.242z"/>
			<path d="M139.112,134.671c-32.099,22.789-49.777,53.337-49.777,86.019c0,32.681,17.678,63.23,49.777,86.019
				c31.32,22.236,72.832,34.481,116.888,34.481c44.056,0,85.568-12.246,116.889-34.481c32.099-22.789,49.776-53.337,49.776-86.019
				c0-32.681-17.678-63.23-49.776-86.019c-31.321-22.236-72.832-34.482-116.889-34.482S170.432,112.435,139.112,134.671z
				 M407.665,220.689c0,58.173-68.037,105.5-151.665,105.5s-151.665-47.327-151.665-105.5s68.037-105.5,151.665-105.5
				S407.665,162.518,407.665,220.689z"/>
		</g>
	</g>
</g>
<g>
</g>
<g>
</g>
<g>
</g>
<g>
</g>
<g>
</g>
<g>
</g>
<g>
</g>
<g>
</g>
<g>
</g>
<g>
</g>
<g>
</g>
<g>
</g>
<g>
</g>
<g>
</g>
<g>
</g>
</svg>
